<?xml version="1.0" encoding="UTF-8" standalone="no"?><!DOCTYPE svg PUBLIC "-//W3C//DTD SVG 1.1//EN" "http://www.w3.org/Graphics/SVG/1.1/DTD/svg11.dtd"><svg width="100%" height="100%" viewBox="0 0 539 539" version="1.1" xmlns="http://www.w3.org/2000/svg" xmlns:xlink="http://www.w3.org/1999/xlink" xml:space="preserve" xmlns:serif="http://www.serif.com/" style="fill-rule:evenodd;clip-rule:evenodd;stroke-linecap:round;stroke-linejoin:round;"><path d="M390.756,524.411l-249.501,-0l-0,-500.102l249.501,248.344l-0,251.758Z" style="fill:#fff;fill-rule:nonzero;stroke:#000;stroke-width:1px;"/><rect x="144.324" y="441.559" width="249.981" height="2.576" style="fill:#fff;stroke:#000;stroke-width:0.38px;"/><rect x="144.324" y="356.559" width="249.981" height="2.576" style="fill:#fff;stroke:#000;stroke-width:0.38px;"/><rect x="144.324" y="271.559" width="249.981" height="2.576" style="fill:#fff;stroke:#000;stroke-width:0.38px;"/><rect x="144.324" y="186.559" width="160.773" height="2.576" style="fill:#fff;stroke:#000;stroke-width:0.27px;"/><rect x="144.324" y="101.559" width="75.981" height="2.576" style="fill:#fff;stroke:#000;stroke-width:0.18px;"/><rect x="141.255" y="511.628" width="249.501" height="12.782" style="fill:#fff;stroke:#000;stroke-width:1px;"/><path d="M384.95,277.887l-242.34,-242.115l8.77,-9.134l242.341,242.113l-8.771,9.136Z" style="fill:#fff;fill-rule:nonzero;stroke:#000;stroke-width:1px;"/><path d="M153.79,524.411l-12.535,-0.51l0,-507.27l12.535,12.411l0,495.369Z" style="fill:#fff;fill-rule:nonzero;stroke:#000;stroke-width:1px;"/><path d="M396.334,524.411l-12.531,-0l0,-265.291l12.531,12.164l0,253.127Z" style="fill:#fff;fill-rule:nonzero;stroke:#000;stroke-width:1px;"/></svg>